<svg width="1728" height="706" viewBox="0 0 1728 706" fill="none" xmlns="http://www.w3.org/2000/svg">
<g clip-path="url(#clip0_48_888)">
<g clip-path="url(#clip1_48_888)">
<path d="M883.751 78.8821C880.793 76.476 878.159 74.3285 875.218 71.9337C893.883 61.0051 912.193 50.2676 930.922 39.2941C933.766 41.6327 936.4 43.8027 939.39 46.265C920.854 57.1261 902.545 67.8748 883.751 78.8821Z" fill="#D5DAE5"/>
<path d="M1076.56 78.7134C1073.7 76.3298 1071.16 74.216 1068.67 72.1585C1070.38 70.4045 1119.46 41.8912 1124.31 39.8224C1127.37 41.5989 1129.56 43.9937 1132.62 46.4111C1113.97 57.2497 1095.43 67.8748 1076.56 78.7247V78.7134Z" fill="#D5DAE5"/>
<path d="M939.551 150.581C920.643 161.476 902.253 172.068 883.588 182.827C880.469 180.691 878.093 178.398 875.152 175.958C893.785 165.22 912.127 154.64 930.857 143.847C934.234 145.713 936.351 148.243 939.551 150.593V150.581Z" fill="#D5DAE5"/>
<path d="M1269.23 78.4438C1266.49 76.094 1264 73.9802 1261.15 71.5516C1280.09 60.9266 1298.74 50.459 1317.8 39.7665C1320.51 42.0939 1323.06 44.2751 1325.88 46.6699C1306.89 57.3174 1288.24 67.7851 1269.23 78.4438Z" fill="#D5DAE5"/>
<path d="M883.007 286.84C880.308 284.524 877.82 282.399 874.959 279.959C893.737 269.323 912.435 258.9 931.019 248.478C933.54 249.602 936.837 252.267 939.358 255.224C920.741 265.669 902.06 276.148 882.991 286.84H883.007Z" fill="#D5DAE5"/>
<path d="M1076.14 182.636C1073.28 180.185 1070.8 178.06 1068.06 175.71C1087.03 165.074 1105.65 154.629 1124.71 143.937C1127.48 146.286 1129.95 148.4 1132.79 150.818C1113.97 161.488 1095.27 171.865 1076.14 182.625V182.636Z" fill="#D5DAE5"/>
<path d="M1075.2 286.143C1072.79 284.007 1070.51 281.983 1067.95 279.712C1073.97 275.867 1080.55 272.741 1086.77 269.334C1093.15 265.826 1099.64 262.397 1106.07 258.945C1112.39 255.561 1118.7 252.177 1125.41 248.579C1128.03 250.917 1130.36 253.009 1132.63 255.044C1130.68 256.843 1080.03 284.265 1075.18 286.143H1075.2Z" fill="#D5DAE5"/>
<path d="M1453.98 71.1578C1473.34 60.7576 1492.2 50.6048 1511.36 40.3171C1514.4 42.3634 1516.62 44.5896 1519.15 47.1193C1499.99 57.4183 1481.05 67.5936 1461.67 78.005C1459.05 75.6776 1456.71 73.5863 1453.98 71.1578Z" fill="#D5DAE5"/>
<path d="M882.167 390.224C881.537 389.729 880.793 389.234 880.179 388.683C878.45 387.132 876.753 385.569 874.733 383.714C893.931 373.392 912.904 363.206 932.28 352.783C934.849 355.065 937.192 357.168 939.487 359.214C937.758 360.957 885.851 389.009 882.151 390.235L882.167 390.224Z" fill="#D5DAE5"/>
<path d="M1268.57 182.198C1265.92 179.814 1263.64 177.768 1261.43 175.789C1263.11 174.001 1311.91 147.433 1318.56 144.645C1321.12 146.635 1323.61 148.715 1326.02 151.312C1306.89 161.6 1287.93 171.786 1268.57 182.198Z" fill="#D5DAE5"/>
<path d="M1460.68 181.456C1459.28 180.163 1458.26 179.252 1457.31 178.319C1456.19 177.239 1455.11 176.126 1454.07 175.092C1456.03 173.372 1508.34 146.961 1512.91 145.398C1515.03 147.399 1517.2 149.446 1519.72 151.829C1500.03 161.712 1480.59 171.471 1460.68 181.456Z" fill="#D5DAE5"/>
<path d="M1126.43 353.525C1128.9 355.886 1131.02 357.899 1133.46 360.215C1113.82 370.154 1094.38 379.868 1074.65 389.729C1071.81 387.705 1069.87 385.535 1067.49 383.084C1087.01 373.223 1106.47 363.475 1126.44 353.514L1126.43 353.525Z" fill="#D5DAE5"/>
<path d="M1646.69 70.5507C1666.52 60.6003 1685.96 50.8522 1705.79 40.9018C1708.16 43.173 1710.31 45.253 1712.82 47.6366C1693.12 57.5308 1673.68 67.2788 1653.83 77.2293C1651.47 75.0256 1649.27 72.968 1646.69 70.5394V70.5507Z" fill="#D5DAE5"/>
<path d="M933.297 457.706C935.835 460.112 937.952 462.125 940.359 464.43C920.676 474.313 901.236 484.072 881.407 494.023C878.886 491.853 876.64 489.75 874.377 487.277C894.012 477.427 913.453 467.679 933.297 457.718V457.706Z" fill="#D5DAE5"/>
<path d="M1326.48 256.101C1306.73 266.006 1287.27 275.754 1267.54 285.66C1265.15 283.366 1262.98 281.297 1260.51 278.936C1280.23 269.042 1299.65 259.294 1319.25 249.456C1322.16 251.401 1324.02 253.616 1326.48 256.112V256.101Z" fill="#D5DAE5"/>
<path d="M1072.63 492.606C1070.74 490.582 1068.93 488.66 1067.17 486.782C1069.11 485.163 1122.53 460.978 1127.98 459.236C1130.21 460.967 1131.97 462.991 1133.57 465.06C1131.68 466.623 1078.29 490.796 1072.63 492.606Z" fill="#D5DAE5"/>
<path d="M1459.15 284.164C1458.54 283.67 1457.99 283.298 1457.57 282.871C1456.14 281.387 1454.77 279.869 1453.14 278.115C1459.7 274.697 1466.58 271.909 1473.23 268.896C1480.04 265.792 1486.9 262.746 1493.73 259.676C1500.44 256.685 1507.15 253.706 1514.24 250.546C1516.31 252.761 1518.1 254.684 1519.85 256.562C1517.89 258.271 1465.78 281.949 1459.13 284.175L1459.15 284.164Z" fill="#D5DAE5"/>
<path d="M1320.82 354.829C1321.64 355.526 1322.29 355.965 1322.76 356.471C1324.16 357.955 1325.49 359.473 1327.09 361.26C1306.74 370.39 1286.62 379.407 1266.2 388.559C1263.64 386.614 1262.06 384.512 1260.04 382.128C1280.24 372.909 1300.54 363.97 1320.79 354.829H1320.82Z" fill="#D5DAE5"/>
<path d="M934.833 563.102C936.95 565.351 938.776 567.285 940.909 569.545C930.68 574.357 920.418 578.798 910.302 583.363C900.25 587.894 890.166 592.38 879.743 597.046C877.658 594.82 875.8 592.83 873.667 590.536C894.125 581.362 914.261 572.333 934.833 563.114V563.102Z" fill="#D5DAE5"/>
<path d="M1652.22 180.253C1650.03 177.937 1648.21 176.014 1646.09 173.765C1666.57 164.591 1686.69 155.562 1707.11 146.41C1709.52 148.411 1711.31 150.503 1713.3 152.886C1692.89 162.038 1672.77 171.044 1652.22 180.253Z" fill="#D5DAE5"/>
<path d="M1456.9 386.603C1455.24 384.489 1453.88 382.792 1452.36 380.869C1453.25 380.386 1453.95 379.88 1454.8 379.576C1474.5 372.257 1494.22 364.971 1513.93 357.674C1514.6 357.427 1515.34 357.269 1516.18 357.022C1518.38 358.663 1519.53 360.62 1520.93 362.913C1499.7 370.772 1478.56 378.598 1456.9 386.614V386.603Z" fill="#D5DAE5"/>
<path d="M1709.55 252.559C1711.2 254.673 1712.61 256.449 1714.24 258.552C1692.86 266.636 1671.66 274.394 1650.37 282.253C1648.06 280.555 1646.96 278.565 1645.49 276.283C1666.73 268.412 1687.88 260.587 1709.55 252.559Z" fill="#D5DAE5"/>
<path d="M1070.64 594.989C1068.98 592.852 1067.59 591.087 1065.94 588.951C1087.35 581.024 1108.47 573.199 1129.67 565.351C1132.26 566.981 1133.21 569.016 1134.73 571.276C1113.53 579.169 1092.43 587.006 1070.64 594.989Z" fill="#D5DAE5"/>
<path d="M941.636 675.469C920.256 683.384 899.199 691.187 877.932 699.058C875.686 697.292 874.296 695.37 873.181 693.009C894.351 685.161 915.408 677.369 936.594 669.521C939.066 671.095 940.02 673.13 941.652 675.469H941.636Z" fill="#D5DAE5"/>
<path d="M1323.47 461.237C1324.86 462.991 1326.25 464.779 1327.91 466.881C1320.95 469.838 1313.79 472.255 1306.81 474.875C1299.65 477.562 1292.42 480.193 1285.23 482.858C1278.17 485.466 1271.13 488.075 1263.74 490.807C1262.19 488.772 1260.82 486.984 1259.47 485.23C1261.45 483.735 1317.97 462.552 1323.47 461.237Z" fill="#D5DAE5"/>
<path d="M1519.2 464.779C1519.65 465.329 1520.12 465.757 1520.4 466.24C1520.96 467.23 1521.42 468.23 1522.01 469.411C1520.77 469.827 1519.78 470.209 1518.73 470.49C1498.27 475.797 1477.82 481.104 1457.36 486.4C1453.98 487.277 1453.9 487.22 1452.59 484.871C1452.19 484.128 1451.86 483.353 1451.52 482.644C1453.72 481.385 1512.74 465.813 1519.22 464.779H1519.2Z" fill="#D5DAE5"/>
<path d="M1712.43 360.282C1713.45 362.104 1714.25 363.588 1715.26 365.398C1692.52 371.301 1670.09 377.125 1647.21 383.061C1646.24 381.386 1645.36 379.857 1644.28 377.991C1666.95 371.987 1689.43 366.264 1712.44 360.271L1712.43 360.282Z" fill="#D5DAE5"/>
<path d="M1326.3 568.971C1327.12 570.377 1327.98 571.816 1329 573.525C1327.51 574.042 1326.33 574.559 1325.05 574.885C1304.38 580.249 1283.7 585.589 1263.01 590.919C1262.53 591.042 1262.03 591.11 1261.4 591.222C1259.35 590.064 1259.28 588.276 1258.33 586.837C1260.61 585.567 1321.21 569.635 1326.28 568.96L1326.3 568.971Z" fill="#D5DAE5"/>
<path d="M1133.17 672.86C1134.15 674.749 1134.91 676.222 1135.85 678.021C1113.05 683.913 1090.66 689.804 1067.72 695.628C1066.68 693.829 1065.86 692.39 1064.82 690.58C1087.67 684.655 1110.12 678.831 1133.18 672.86H1133.17Z" fill="#D5DAE5"/>
<path d="M1328.3 676.65C1328.77 678.1 1329.11 679.179 1329.58 680.641C1305.92 684.408 1282.6 688.118 1258.81 691.896C1258.36 690.468 1257.99 689.31 1257.54 687.904C1281.18 684.149 1304.42 680.439 1328.3 676.638V676.65Z" fill="#D5DAE5"/>
<path d="M1450.49 583.734C1474.2 579.967 1497.53 576.246 1521.35 572.457C1521.85 573.75 1522.26 574.818 1522.81 576.257C1510.91 578.573 1499.05 580.136 1487.3 582.07C1475.67 583.992 1463.98 585.791 1451.96 587.703C1451.43 586.264 1451.02 585.184 1450.51 583.734H1450.49Z" fill="#D5DAE5"/>
<path d="M1714.72 468.635C1715.08 469.793 1715.4 470.816 1715.82 472.199C1692.23 476.045 1668.89 479.71 1645.04 483.477C1644.57 482.184 1644.17 481.127 1643.8 480.104C1646.38 478.968 1710.07 468.658 1714.71 468.635H1714.72Z" fill="#D5DAE5"/>
<path d="M1715.42 575.234C1715.63 576.111 1715.82 576.875 1716 577.595C1713.21 578.494 1651.09 584.858 1644.27 584.959C1644.02 584.195 1643.76 583.374 1643.54 582.598C1646.21 581.699 1709.99 575.166 1715.44 575.234H1715.42Z" fill="#D5DAE5"/>
<path d="M1451.12 689.377C1450.83 688.264 1450.62 687.511 1450.37 686.622C1451.43 686.364 1452.22 686.083 1453.04 685.993C1475.02 683.8 1497.01 681.619 1519.01 679.449C1522.47 679.112 1522.48 679.134 1522.64 682.181C1510.98 683.654 1499.1 684.61 1487.3 685.847C1475.44 687.095 1463.55 688.174 1451.12 689.377Z" fill="#D5DAE5"/>
<path d="M1715.85 680.708V683.362C1691.94 684.857 1668.08 686.341 1643.93 687.848C1643.76 686.87 1643.67 686.218 1643.52 685.206C1667.66 683.699 1691.5 682.226 1715.85 680.708Z" fill="#D5DAE5"/>
</g>
<g clip-path="url(#clip2_48_888)">
<path d="M109.558 78.7134C106.697 76.3298 104.16 74.216 101.672 72.1585C103.385 70.4045 152.463 41.8912 157.311 39.8224C160.365 41.5989 162.563 43.9937 165.617 46.4111C146.969 57.2497 128.433 67.8748 109.558 78.7247V78.7134Z" fill="#D5DAE5"/>
<path d="M302.235 78.4438C299.488 76.094 296.999 73.9802 294.155 71.5516C313.095 60.9266 331.744 50.459 350.797 39.7665C353.511 42.0939 356.065 44.2751 358.877 46.6699C339.888 57.3174 321.24 67.7851 302.235 78.4438Z" fill="#D5DAE5"/>
<path d="M109.137 182.636C106.277 180.185 103.804 178.06 101.057 175.71C120.029 165.074 138.646 154.629 157.715 143.937C160.478 146.286 162.951 148.4 165.795 150.818C146.968 161.488 128.271 171.865 109.137 182.625V182.636Z" fill="#D5DAE5"/>
<path d="M108.201 286.143C105.793 284.007 103.515 281.983 100.945 279.712C106.973 275.867 113.55 272.741 119.772 269.334C126.155 265.826 132.635 262.397 139.067 258.945C145.386 255.561 151.704 252.177 158.411 248.579C161.029 250.917 163.356 253.009 165.634 255.044C163.679 256.843 113.033 284.265 108.185 286.143H108.201Z" fill="#D5DAE5"/>
<path d="M486.979 71.1578C506.338 60.7576 525.197 50.6048 544.363 40.3171C547.401 42.3634 549.615 44.5896 552.153 47.1193C532.987 57.4183 514.047 67.5936 494.671 78.005C492.053 75.6776 489.71 73.5863 486.979 71.1578Z" fill="#D5DAE5"/>
<path d="M301.572 182.198C298.922 179.814 296.643 177.768 294.429 175.789C296.11 174.001 344.914 147.433 351.556 144.645C354.125 146.635 356.614 148.715 359.022 151.312C339.888 161.6 320.932 171.786 301.572 182.198Z" fill="#D5DAE5"/>
<path d="M493.685 181.456C492.279 180.163 491.261 179.252 490.307 178.319C489.192 177.239 488.11 176.126 487.075 175.092C489.031 173.372 541.341 146.961 545.915 145.398C548.032 147.399 550.197 149.446 552.718 151.829C533.035 161.712 513.594 171.471 493.685 181.456Z" fill="#D5DAE5"/>
<path d="M159.428 353.525C161.901 355.886 164.018 357.899 166.458 360.215C146.823 370.154 127.382 379.868 107.651 389.729C104.807 387.705 102.867 385.535 100.492 383.084C120.013 373.223 139.47 363.475 159.444 353.514L159.428 353.525Z" fill="#D5DAE5"/>
<path d="M679.688 70.5507C699.517 60.6003 718.957 50.8522 738.786 40.9018C741.161 43.173 743.311 45.253 745.815 47.6366C726.116 57.5308 706.676 67.2788 686.831 77.2293C684.471 75.0256 682.274 72.968 679.688 70.5394V70.5507Z" fill="#D5DAE5"/>
<path d="M359.476 256.101C339.728 266.006 320.271 275.754 300.539 285.66C298.148 283.366 295.982 281.297 293.51 278.936C313.225 269.042 332.65 259.294 352.252 249.456C355.161 251.401 357.019 253.616 359.476 256.112V256.101Z" fill="#D5DAE5"/>
<path d="M105.63 492.606C103.74 490.582 101.93 488.66 100.168 486.782C102.107 485.163 155.533 460.978 160.979 459.236C163.209 460.967 164.971 462.991 166.57 465.06C164.68 466.623 111.286 490.796 105.63 492.606Z" fill="#D5DAE5"/>
<path d="M492.15 284.164C491.535 283.67 490.986 283.298 490.566 282.871C489.144 281.387 487.77 279.869 486.138 278.115C492.699 274.697 499.583 271.909 506.225 268.896C513.045 265.792 519.897 262.746 526.732 259.676C533.439 256.685 540.145 253.706 547.24 250.546C549.308 252.761 551.102 254.684 552.847 256.562C550.892 258.271 498.775 281.949 492.133 284.175L492.15 284.164Z" fill="#D5DAE5"/>
<path d="M353.819 354.829C354.643 355.526 355.289 355.965 355.758 356.471C357.164 357.955 358.489 359.473 360.089 361.26C339.743 370.39 319.624 379.407 299.197 388.559C296.644 386.614 295.06 384.512 293.04 382.128C313.24 372.909 333.537 363.97 353.786 354.829H353.819Z" fill="#D5DAE5"/>
<path d="M685.216 180.253C683.034 177.937 681.208 176.014 679.091 173.765C699.566 164.591 719.685 155.562 740.112 146.41C742.52 148.411 744.314 150.503 746.301 152.886C725.891 162.038 705.772 171.044 685.216 180.253Z" fill="#D5DAE5"/>
<path d="M489.904 386.603C488.24 384.489 486.882 382.792 485.363 380.869C486.252 380.386 486.947 379.88 487.803 379.576C507.503 372.257 527.218 364.971 546.934 357.674C547.596 357.427 548.34 357.269 549.18 357.022C551.378 358.663 552.525 360.62 553.931 362.913C532.696 370.772 511.559 378.598 489.904 386.614V386.603Z" fill="#D5DAE5"/>
<path d="M742.553 252.559C744.201 254.673 745.607 256.449 747.24 258.552C725.86 266.636 704.657 274.394 683.374 282.253C681.064 280.555 679.965 278.565 678.494 276.283C699.729 268.412 720.882 260.587 742.553 252.559Z" fill="#D5DAE5"/>
<path d="M103.643 594.989C101.979 592.852 100.589 591.087 98.9406 588.951C120.353 581.024 141.474 573.199 162.676 565.351C165.262 566.981 166.215 569.016 167.734 571.276C146.532 579.169 125.427 587.006 103.643 594.989Z" fill="#D5DAE5"/>
<path d="M356.468 461.237C357.858 462.991 359.248 464.779 360.912 466.881C353.947 469.838 346.788 472.255 339.807 474.875C332.648 477.562 325.424 480.193 318.233 482.858C311.171 485.466 304.125 488.075 296.74 490.807C295.189 488.772 293.815 486.984 292.474 485.23C294.445 483.735 350.974 462.552 356.468 461.237Z" fill="#D5DAE5"/>
<path d="M552.201 464.779C552.654 465.329 553.122 465.757 553.397 466.24C553.963 467.23 554.415 468.23 555.013 469.411C553.769 469.827 552.783 470.209 551.733 470.49C531.274 475.797 510.815 481.104 490.356 486.4C486.979 487.277 486.898 487.22 485.589 484.871C485.185 484.128 484.862 483.353 484.522 482.644C486.72 481.385 545.737 465.813 552.217 464.779H552.201Z" fill="#D5DAE5"/>
<path d="M745.428 360.282C746.446 362.104 747.254 363.588 748.256 365.398C725.519 371.301 703.088 377.125 680.206 383.061C679.236 381.386 678.363 379.857 677.281 377.991C699.953 371.987 722.432 366.264 745.444 360.271L745.428 360.282Z" fill="#D5DAE5"/>
<path d="M359.298 568.971C360.122 570.377 360.979 571.816 361.997 573.525C360.51 574.042 359.33 574.559 358.054 574.885C337.385 580.249 316.7 585.589 296.015 590.919C295.53 591.042 295.029 591.11 294.399 591.222C292.346 590.064 292.282 588.276 291.328 586.837C293.607 585.567 354.208 569.635 359.282 568.96L359.298 568.971Z" fill="#D5DAE5"/>
<path d="M166.167 672.86C167.153 674.749 167.912 676.222 168.849 678.021C146.047 683.913 123.666 689.804 100.718 695.628C99.6839 693.829 98.8597 692.39 97.8254 690.58C120.676 684.655 143.122 678.831 166.183 672.86H166.167Z" fill="#D5DAE5"/>
<path d="M361.301 676.65C361.77 678.1 362.109 679.179 362.578 680.641C338.92 684.408 315.6 688.118 291.813 691.896C291.36 690.468 290.988 689.31 290.536 687.904C314.178 684.149 337.417 680.439 361.301 676.638V676.65Z" fill="#D5DAE5"/>
<path d="M483.489 583.734C507.196 579.967 530.531 576.246 554.351 572.457C554.852 573.75 555.256 574.818 555.806 576.257C543.912 578.573 532.05 580.136 520.302 582.07C508.667 583.992 496.983 585.791 484.96 587.703C484.426 586.264 484.022 585.184 483.505 583.734H483.489Z" fill="#D5DAE5"/>
<path d="M747.722 468.635C748.078 469.793 748.401 470.816 748.821 472.199C725.227 476.045 701.892 479.71 678.04 483.477C677.571 482.184 677.167 481.127 676.795 480.104C679.381 478.968 743.068 468.658 747.706 468.635H747.722Z" fill="#D5DAE5"/>
<path d="M748.419 575.234C748.629 576.111 748.823 576.875 749.001 577.595C746.205 578.494 684.085 584.858 677.266 584.959C677.023 584.195 676.765 583.374 676.539 582.598C679.205 581.699 742.989 575.166 748.435 575.234H748.419Z" fill="#D5DAE5"/>
<path d="M484.118 689.377C483.827 688.264 483.617 687.511 483.375 686.622C484.425 686.364 485.217 686.083 486.041 685.993C508.019 683.8 530.013 681.619 552.007 679.449C555.465 679.112 555.482 679.134 555.643 682.181C543.976 683.654 532.098 684.61 520.301 685.847C508.439 687.095 496.545 688.174 484.118 689.377Z" fill="#D5DAE5"/>
<path d="M748.854 680.708V683.362C724.937 684.857 701.084 686.341 676.925 687.848C676.763 686.87 676.666 686.218 676.521 685.206C700.664 683.699 724.501 682.226 748.854 680.708Z" fill="#D5DAE5"/>
</g>
</g>
<defs>
<clipPath id="clip0_48_888">
<rect width="1728" height="722" fill="white" transform="translate(0 -16)"/>
</clipPath>
<clipPath id="clip1_48_888">
<rect width="845" height="1067" fill="white" transform="translate(871 -65)"/>
</clipPath>
<clipPath id="clip2_48_888">
<rect width="845" height="1067" fill="white" transform="translate(-96 -65)"/>
</clipPath>
</defs>
</svg>
