<svg width="553" height="97" viewBox="0 0 553 97" fill="none" xmlns="http://www.w3.org/2000/svg">
<path d="M51.7771 29.0295L57.2504 40.9304L36.7804 40.9304L32.0734 30.5866L19.5943 30.5866L19.5943 40.9304L0.218992 40.9304L0.218994 0.66748L41.0495 0.667483C44.5524 0.667483 50.3541 1.2236 53.857 3.89296C57.1409 6.78477 58.0166 11.4562 58.0166 15.6826C58.0166 19.5755 57.2504 24.5805 54.1854 27.1387C53.2002 27.9172 52.5434 28.5846 51.7771 29.0295ZM19.5943 17.6847L31.1977 17.6847C32.5112 17.6847 34.3721 17.6847 35.6857 17.351C36.7804 17.0173 37.1088 16.2388 37.1088 15.6826C37.1088 15.1265 36.7804 14.4592 35.6857 14.1255C34.4816 13.6806 32.5112 13.7918 31.1977 13.7918L19.5943 13.7918L19.5943 17.6847Z" fill="black"/>
<path d="M82.9746 11.901L82.9746 15.0153L113.406 15.0153L113.406 26.2489L82.9746 26.2489L82.9746 29.808L114.063 29.808L114.063 41.0416L60.2058 41.0416L60.2058 0.66748L114.063 0.667483L114.063 11.901L82.9746 11.901Z" fill="black"/>
<path d="M139.021 11.901L139.021 15.0153L169.452 15.0153L169.452 26.2489L139.021 26.2489L139.021 40.9304L116.252 40.9304L116.252 0.66748L170.109 0.667483L170.109 11.9011L139.021 11.901Z" fill="black"/>
<path d="M180.18 37.2599C174.488 33.4783 171.751 26.36 171.751 21.0212C171.751 15.6825 174.378 8.45298 180.18 4.78261C186.529 0.778565 195.615 1.32767e-06 202.401 1.70527e-06C209.298 2.08895e-06 217.726 0.778567 224.185 4.78261C229.987 8.45298 232.723 15.6825 232.723 21.0212C232.723 26.36 229.877 33.5895 224.185 37.2599C217.836 41.3751 208.312 41.7088 202.401 41.7088C196.49 41.82 186.638 41.4863 180.18 37.2599ZM210.721 27.361C212.91 25.9151 214.005 23.1345 214.005 21.1325C214.005 19.0192 212.91 16.3498 210.721 14.9039C208.312 13.3468 204.591 13.3468 202.292 13.3468C199.993 13.3468 196.162 13.458 193.644 14.9039C191.455 16.2386 190.47 19.1304 190.47 21.1325C190.47 23.1345 191.455 25.9151 193.644 27.361C196.162 28.9181 199.884 29.1405 202.182 29.1405C204.591 29.1405 208.203 29.0293 210.721 27.361Z" fill="black"/>
<path d="M287.237 29.0295L292.71 40.9304L272.24 40.9304L267.533 30.5866L255.054 30.5866L255.054 40.9304L235.569 40.9304L235.569 0.66748L276.4 0.667483C279.902 0.667483 285.704 1.2236 289.207 3.89296C292.491 6.78477 293.367 11.4562 293.367 15.6826C293.367 19.5755 292.6 24.5805 289.535 27.1387C288.66 27.9172 287.893 28.5846 287.237 29.0295ZM254.944 17.6847L266.548 17.6847C267.861 17.6847 269.722 17.6847 271.036 17.351C272.13 17.0173 272.459 16.2388 272.459 15.6826C272.459 15.1265 272.13 14.4592 271.036 14.1255C269.832 13.6806 267.861 13.7918 266.548 13.7918L254.944 13.7918L254.944 17.6847Z" fill="black"/>
<path d="M360.25 40.9304L340.656 40.9304L340.656 26.0264L331.789 40.9304L324.126 40.9304L315.26 25.9152L315.26 40.9304L295.665 40.9304L295.665 0.66748L315.26 0.667482L327.958 22.2448L340.656 0.778706L340.656 0.667483L360.25 0.667484L360.25 40.9304Z" fill="black"/>
<path d="M8.53829 59.8384C14.7778 56.0568 24.6297 55.167 30.7597 55.167C36.5614 55.167 46.7417 56.7241 52.5433 59.8384C58.8923 63.2863 60.8627 68.8475 61.0816 74.4087L42.2536 74.4087C41.9252 72.6291 41.1589 70.8495 39.0791 69.8485C36.7803 68.7363 32.5112 68.2914 30.6503 68.2914C28.5704 68.2914 24.5202 68.4026 22.112 69.8485C19.7037 71.2944 18.9375 74.075 18.9375 76.1882C18.9375 78.3015 19.8132 80.9708 22.112 82.4167C24.6297 83.8626 28.461 84.1963 30.6503 84.1963C33.0585 84.1963 36.4519 83.9739 39.0791 82.4167C40.7211 81.4157 41.7063 79.5249 42.1441 77.8566L60.9721 77.8566C60.4248 82.7504 57.5787 89.2014 52.4338 92.2044C45.7565 96.0972 36.8898 96.6533 30.6503 96.6533C24.9581 96.6533 14.8873 96.0972 8.42882 92.2044C2.5177 88.534 -1.47276e-06 81.6382 -1.16954e-06 76.1882C0.21893 70.5158 2.29877 63.5088 8.53829 59.8384Z" fill="black"/>
<path d="M71.2617 92.3156C65.5695 88.534 62.8329 81.4157 62.8329 76.077C62.8329 70.7383 65.46 63.5088 71.2617 59.8384C77.6107 55.8344 86.6963 55.0558 93.4832 55.0558C100.379 55.0558 108.808 55.8344 115.267 59.8384C121.068 63.5088 123.805 70.7383 123.805 76.077C123.805 81.4157 120.959 88.6453 115.267 92.3156C108.918 96.4309 99.3943 96.7646 93.4832 96.7646C87.572 96.8758 77.6107 96.5421 71.2617 92.3156ZM101.803 82.4168C103.992 80.9709 105.086 78.1903 105.086 76.1882C105.086 74.075 103.992 71.4056 101.803 69.9597C99.3943 68.4026 95.6725 68.4026 93.3737 68.4026C91.0749 68.4026 87.2436 68.5138 84.7259 69.9597C82.5366 71.2944 81.5514 74.1862 81.5514 76.1882C81.5514 78.1903 82.5366 80.9708 84.7259 82.4168C87.2436 83.9739 90.9655 84.1963 93.2642 84.1963C95.6725 84.1963 99.2848 84.0851 101.803 82.4168Z" fill="black"/>
<path d="M177.662 80.9706L177.662 95.9858L126.651 95.9858L126.651 55.7229L149.092 55.7229L149.092 81.0818L177.662 81.0818L177.662 80.9706Z" fill="black"/>
<path d="M230.862 80.9706L230.862 95.9858L179.851 95.9858L179.851 55.7229L202.292 55.7229L202.292 81.0818L230.862 81.0818L230.862 80.9706Z" fill="black"/>
<path d="M255.93 66.9565L255.93 70.0707L286.361 70.0707L286.361 81.3043L255.93 81.3043L255.93 84.8634L287.018 84.8634L287.018 96.097L233.161 96.097L233.161 55.7229L287.018 55.7229L287.018 66.9565L255.93 66.9565Z" fill="black"/>
<path d="M297.526 59.8384C303.766 56.0568 313.618 55.167 319.748 55.167C325.549 55.167 335.73 56.7241 341.531 59.8384C347.88 63.2863 349.851 68.8475 350.07 74.4087L331.242 74.4087C330.913 72.6291 330.147 70.8495 328.067 69.8485C325.768 68.7363 321.499 68.2914 319.638 68.2914C317.558 68.2914 313.508 68.4026 311.1 69.8485C308.692 71.2944 307.926 74.075 307.926 76.1882C307.926 78.3015 308.801 80.9708 311.1 82.4167C313.618 83.8626 317.449 84.1963 319.638 84.1963C322.047 84.1963 325.44 83.9739 328.067 82.4167C329.709 81.4157 330.694 79.5249 331.132 77.8566L349.96 77.8566C349.413 82.7504 346.567 89.2014 341.422 92.2044C334.745 96.0972 325.878 96.6533 319.638 96.6533C313.946 96.6533 303.875 96.0972 297.417 92.2044C291.506 88.534 288.988 81.6382 288.988 76.1882C289.207 70.5158 291.287 63.5088 297.526 59.8384Z" fill="black"/>
<path d="M408.415 71.2942L391.667 71.2942L391.667 95.9858L369.007 95.9858L369.007 71.2942L351.821 71.2942L351.821 55.7229L408.415 55.7229L408.415 71.2942Z" fill="black"/>
<path d="M430.527 55.7229L430.527 95.9858L410.714 95.9858L410.714 55.7229L430.527 55.7229Z" fill="black"/>
<path d="M497.41 55.7229L479.457 95.9858L450.778 95.9858L432.825 55.7229L452.748 55.7229L465.118 83.3063L477.378 55.7229L497.41 55.7229V55.7229Z" fill="black"/>
<path d="M521.821 66.9565L521.821 70.0707L552.252 70.0707L552.252 81.3043L521.821 81.3043L521.821 84.8634L552.909 84.8634L552.909 96.097L499.052 96.097L499.052 55.7229L552.909 55.7229L552.909 66.9565L521.821 66.9565Z" fill="black"/>
</svg>
