<svg width="11" height="9" viewBox="0 0 11 9" fill="none" xmlns="http://www.w3.org/2000/svg">
<path fill-rule="evenodd" clip-rule="evenodd" d="M4.62891 0.102803C5.76947 -0.189542 6.98499 0.152691 7.77832 0.988546L10.9932 4.37624C10.9985 4.38188 10.9998 4.38903 11 4.39577C11.0029 4.40518 11.0009 4.41579 10.9932 4.42409L7.7793 7.81276C6.98591 8.64892 5.76967 8.98993 4.62891 8.69753C4.60649 8.69154 4.59783 8.66533 4.61328 8.6487L7.82715 5.26101C7.83868 5.24885 7.85157 5.2378 7.86328 5.22585H0.930664C0.416955 5.22585 0 4.8089 0 4.29519C0.000181621 3.78163 0.417067 3.3655 0.930664 3.3655H7.66113L4.61328 0.152608C4.5978 0.135959 4.60644 0.108778 4.62891 0.102803Z" fill="currentColor"/>
</svg>
